<mxfile host="app.diagrams.net" modified="2021-05-04T18:55:14.386Z" agent="5.0 (Windows NT 10.0; Win64; x64) AppleWebKit/537.36 (KHTML, like Gecko) Chrome/90.0.4430.85 Safari/537.36 Edg/90.0.818.46" etag="verxG0l7UCzWXpv5Y5Db" version="14.6.10" type="github">
  <diagram id="kgpKYQtTHZ0yAKxKKP6v" name="Page-1">
    <mxGraphModel dx="2272" dy="794" grid="1" gridSize="10" guides="1" tooltips="1" connect="1" arrows="1" fold="1" page="1" pageScale="1" pageWidth="850" pageHeight="1100" math="0" shadow="0">
      <root>
        <mxCell id="0" />
        <mxCell id="1" parent="0" />
        <mxCell id="3BVnV9-UqfPBugqdNW3k-4" value="Information Flows" style="swimlane;" parent="1" vertex="1">
          <mxGeometry x="-600" y="40" width="1380" height="280" as="geometry" />
        </mxCell>
        <mxCell id="wGHKYBOvROYjvj_hRb37-10" style="edgeStyle=orthogonalEdgeStyle;rounded=0;orthogonalLoop=1;jettySize=auto;html=1;entryX=0.5;entryY=0;entryDx=0;entryDy=0;" edge="1" parent="3BVnV9-UqfPBugqdNW3k-4" source="3BVnV9-UqfPBugqdNW3k-10" target="3BVnV9-UqfPBugqdNW3k-8">
          <mxGeometry relative="1" as="geometry" />
        </mxCell>
        <mxCell id="wGHKYBOvROYjvj_hRb37-11" value="Application Details" style="edgeLabel;html=1;align=center;verticalAlign=middle;resizable=0;points=[];" vertex="1" connectable="0" parent="wGHKYBOvROYjvj_hRb37-10">
          <mxGeometry x="0.0818" relative="1" as="geometry">
            <mxPoint as="offset" />
          </mxGeometry>
        </mxCell>
        <mxCell id="3BVnV9-UqfPBugqdNW3k-10" value="Customer" style="shape=cube;whiteSpace=wrap;html=1;boundedLbl=1;backgroundOutline=1;darkOpacity=0.05;darkOpacity2=0.1;fillColor=#dae8fc;strokeColor=#6c8ebf;" parent="3BVnV9-UqfPBugqdNW3k-4" vertex="1">
          <mxGeometry x="1080" y="40" width="120" height="80" as="geometry" />
        </mxCell>
        <mxCell id="3BVnV9-UqfPBugqdNW3k-11" value="Supplier" style="shape=cube;whiteSpace=wrap;html=1;boundedLbl=1;backgroundOutline=1;darkOpacity=0.05;darkOpacity2=0.1;fillColor=#d5e8d4;strokeColor=#82b366;" parent="3BVnV9-UqfPBugqdNW3k-4" vertex="1">
          <mxGeometry x="120" y="40" width="120" height="80" as="geometry" />
        </mxCell>
        <mxCell id="wGHKYBOvROYjvj_hRb37-18" style="edgeStyle=orthogonalEdgeStyle;rounded=0;orthogonalLoop=1;jettySize=auto;html=1;entryX=0;entryY=0;entryDx=120;entryDy=50;entryPerimeter=0;" edge="1" parent="3BVnV9-UqfPBugqdNW3k-4" source="3BVnV9-UqfPBugqdNW3k-8" target="3BVnV9-UqfPBugqdNW3k-11">
          <mxGeometry relative="1" as="geometry" />
        </mxCell>
        <mxCell id="wGHKYBOvROYjvj_hRb37-19" value="Engineering Drawing" style="edgeLabel;html=1;align=center;verticalAlign=middle;resizable=0;points=[];" vertex="1" connectable="0" parent="wGHKYBOvROYjvj_hRb37-18">
          <mxGeometry x="-0.0682" y="2" relative="1" as="geometry">
            <mxPoint as="offset" />
          </mxGeometry>
        </mxCell>
        <mxCell id="3BVnV9-UqfPBugqdNW3k-8" value="Application Engineer" style="rounded=0;whiteSpace=wrap;html=1;" parent="3BVnV9-UqfPBugqdNW3k-4" vertex="1">
          <mxGeometry x="620" y="120" width="120" height="60" as="geometry" />
        </mxCell>
        <mxCell id="wGHKYBOvROYjvj_hRb37-5" value="BDM Qualification Process" style="shape=process;whiteSpace=wrap;html=1;backgroundOutline=1;" vertex="1" parent="3BVnV9-UqfPBugqdNW3k-4">
          <mxGeometry x="850" y="150" width="120" height="60" as="geometry" />
        </mxCell>
        <mxCell id="wGHKYBOvROYjvj_hRb37-7" value="" style="edgeStyle=orthogonalEdgeStyle;rounded=0;orthogonalLoop=1;jettySize=auto;html=1;entryX=1;entryY=0.5;entryDx=0;entryDy=0;" edge="1" parent="3BVnV9-UqfPBugqdNW3k-4" source="wGHKYBOvROYjvj_hRb37-5" target="3BVnV9-UqfPBugqdNW3k-8">
          <mxGeometry relative="1" as="geometry">
            <mxPoint x="830" y="130" as="targetPoint" />
          </mxGeometry>
        </mxCell>
        <mxCell id="wGHKYBOvROYjvj_hRb37-13" value="Approved&lt;br&gt;Opportunity" style="edgeLabel;html=1;align=center;verticalAlign=middle;resizable=0;points=[];" vertex="1" connectable="0" parent="wGHKYBOvROYjvj_hRb37-7">
          <mxGeometry x="-0.2857" y="2" relative="1" as="geometry">
            <mxPoint as="offset" />
          </mxGeometry>
        </mxCell>
        <mxCell id="wGHKYBOvROYjvj_hRb37-9" value="" style="edgeStyle=orthogonalEdgeStyle;rounded=0;orthogonalLoop=1;jettySize=auto;html=1;entryX=1;entryY=0.5;entryDx=0;entryDy=0;" edge="1" parent="3BVnV9-UqfPBugqdNW3k-4" source="3BVnV9-UqfPBugqdNW3k-10" target="wGHKYBOvROYjvj_hRb37-5">
          <mxGeometry relative="1" as="geometry">
            <mxPoint x="1000" y="80" as="targetPoint" />
          </mxGeometry>
        </mxCell>
        <mxCell id="wGHKYBOvROYjvj_hRb37-12" value="Business&lt;br&gt;Applicable" style="edgeLabel;html=1;align=center;verticalAlign=middle;resizable=0;points=[];" vertex="1" connectable="0" parent="wGHKYBOvROYjvj_hRb37-9">
          <mxGeometry x="0.2286" y="-1" relative="1" as="geometry">
            <mxPoint x="1" y="-24" as="offset" />
          </mxGeometry>
        </mxCell>
        <mxCell id="3BVnV9-UqfPBugqdNW3k-5" value="Material Flows" style="swimlane;" parent="1" vertex="1">
          <mxGeometry x="-600" y="340" width="1380" height="210" as="geometry" />
        </mxCell>
        <mxCell id="3BVnV9-UqfPBugqdNW3k-1" value="Project Manager" style="rounded=0;whiteSpace=wrap;html=1;" parent="3BVnV9-UqfPBugqdNW3k-5" vertex="1">
          <mxGeometry x="220" y="60" width="120" height="60" as="geometry" />
        </mxCell>
        <mxCell id="3BVnV9-UqfPBugqdNW3k-9" value="Quality Engineer" style="rounded=0;whiteSpace=wrap;html=1;" parent="3BVnV9-UqfPBugqdNW3k-5" vertex="1">
          <mxGeometry x="1025" y="80" width="120" height="60" as="geometry" />
        </mxCell>
        <mxCell id="3BVnV9-UqfPBugqdNW3k-6" value="Lead Time Ladder" style="swimlane;" parent="1" vertex="1">
          <mxGeometry x="-600" y="580" width="1370" height="190" as="geometry" />
        </mxCell>
      </root>
    </mxGraphModel>
  </diagram>
</mxfile>
